# This file uses centimeters as units for non-parametric coordinates.

mtllib Disc.mtl
g default
v -0.866025 0.000000 0.500000
v 0.866025 0.000000 0.500000
v -0.000000 0.000000 -1.000000
v 0.000000 0.000000 1.000000
v 0.866025 0.000000 -0.500000
v -0.866026 0.000000 -0.500000
v -1.000000 0.000000 0.000000
v -0.500000 0.000000 0.866025
v 0.500000 0.000000 0.866025
v 1.000000 0.000000 -0.000000
v 0.500000 0.000000 -0.866026
v -0.500000 0.000000 -0.866025
v -0.774461 0.000000 -0.411843
v -0.965926 0.000000 -0.258819
v -0.871914 0.000000 0.141400
v -0.881004 0.000000 -0.135222
v -0.965926 0.000000 0.258819
v -0.707107 0.000000 0.707107
v -0.516183 0.000000 0.764920
v -0.774274 0.000000 0.450116
v -0.258819 0.000000 0.965926
v 0.000000 0.000000 0.879458
v -0.258091 0.000000 0.839760
v 0.258819 0.000000 0.965926
v 0.516183 0.000000 0.764919
v 0.258091 0.000000 0.839760
v 0.707107 0.000000 0.707107
v 0.965926 0.000000 0.258819
v 0.871914 0.000000 0.141399
v 0.774274 0.000000 0.450116
v 0.965926 0.000000 -0.258819
v 0.774461 0.000000 -0.411844
v 0.881003 0.000000 -0.135222
v 0.707107 0.000000 -0.707107
v 0.276621 0.000000 -0.865678
v 0.497653 0.000000 -0.726647
v 0.258819 0.000000 -0.965926
v -0.258819 0.000000 -0.965926
v -0.276622 0.000000 -0.865678
v -0.000000 0.000000 -0.890966
v -0.707107 0.000000 -0.707107
v -0.497653 0.000000 -0.726647
vt 0.066987 0.250000
vt 0.933013 0.250000
vt 0.500000 1.000000
vt 0.500000 0.000000
vt 0.933013 0.750000
vt 0.066987 0.750000
vt 0.000000 0.500000
vt 0.250000 0.066987
vt 0.750000 0.066987
vt 1.000000 0.500000
vt 0.750000 0.933013
vt 0.250000 0.933013
vt 0.175240 0.687500
vt 0.017037 0.629409
vt 0.141747 0.437500
vt 0.158494 0.562500
vt 0.017037 0.370590
vt 0.146447 0.146447
vt 0.266747 0.220994
vt 0.150120 0.297997
vt 0.370591 0.017037
vt 0.500000 0.125000
vt 0.383373 0.172997
vt 0.629410 0.017037
vt 0.733253 0.220994
vt 0.616627 0.172997
vt 0.853553 0.146447
vt 0.982963 0.370591
vt 0.858253 0.437500
vt 0.849880 0.297997
vt 0.982963 0.629410
vt 0.824759 0.687500
vt 0.841506 0.562500
vt 0.853553 0.853553
vt 0.625000 0.841506
vt 0.724880 0.764503
vt 0.629409 0.982963
vt 0.370590 0.982963
vt 0.375000 0.841506
vt 0.500000 0.904006
vt 0.146447 0.853553
vt 0.275120 0.764503
vn 0.000000 1.000000 0.000000
vn 0.000000 1.000000 0.000000
vn 0.000000 1.000000 0.000000
vn 0.000000 1.000000 0.000000
vn 0.000000 1.000000 0.000000
vn 0.000000 1.000000 0.000000
vn 0.000000 1.000000 0.000000
vn 0.000000 1.000000 0.000000
vn 0.000000 1.000000 0.000000
vn 0.000000 1.000000 0.000000
vn 0.000000 1.000000 0.000000
vn 0.000000 1.000000 0.000000
vn 0.000000 1.000000 0.000000
vn 0.000000 1.000000 0.000000
vn 0.000000 1.000000 0.000000
vn 0.000000 1.000000 0.000000
vn 0.000000 1.000000 0.000000
vn 0.000000 1.000000 0.000000
vn 0.000000 1.000000 0.000000
vn 0.000000 1.000000 0.000000
vn 0.000000 1.000000 0.000000
vn 0.000000 1.000000 0.000000
vn 0.000000 1.000000 0.000000
vn 0.000000 1.000000 0.000000
vn 0.000000 1.000000 0.000000
vn 0.000000 1.000000 0.000000
vn 0.000000 1.000000 0.000000
vn 0.000000 1.000000 0.000000
vn 0.000000 1.000000 0.000000
vn 0.000000 1.000000 0.000000
vn 0.000000 1.000000 0.000000
vn 0.000000 1.000000 0.000000
vn 0.000000 1.000000 0.000000
vn 0.000000 1.000000 0.000000
vn 0.000000 1.000000 0.000000
vn 0.000000 1.000000 0.000000
vn 0.000000 1.000000 0.000000
vn 0.000000 1.000000 0.000000
vn 0.000000 1.000000 0.000000
vn 0.000000 1.000000 0.000000
vn 0.000000 1.000000 0.000000
vn 0.000000 1.000000 0.000000
s 1
g ParticleDisc
usemtl initialShadingGroup
f 13/13/1 6/6/2 14/14/3 16/16/4
f 14/14/3 7/7/5 15/15/6 16/16/4
f 15/15/6 7/7/5 17/17/7 20/20/8
f 17/17/7 1/1/9 18/18/10 20/20/8
f 18/18/10 8/8/11 19/19/12 20/20/8
f 19/19/12 8/8/11 21/21/13 23/23/14
f 21/21/13 4/4/15 22/22/16 23/23/14
f 22/22/16 4/4/15 24/24/17 26/26/18
f 24/24/17 9/9/19 25/25/20 26/26/18
f 25/25/20 9/9/19 27/27/21 30/30/22
f 27/27/21 2/2/23 28/28/24 30/30/22
f 28/28/24 10/10/25 29/29/26 30/30/22
f 29/29/26 10/10/25 31/31/27 33/33/28
f 31/31/27 5/5/29 32/32/30 33/33/28
f 32/32/30 5/5/29 34/34/31 36/36/32
f 34/34/31 11/11/33 35/35/34 36/36/32
f 35/35/34 11/11/33 37/37/35 40/40/36
f 37/37/35 3/3/37 38/38/38 40/40/36
f 38/38/38 12/12/39 39/39/40 40/40/36
f 39/39/40 12/12/39 41/41/41 42/42/42
f 41/41/41 6/6/2 13/13/1 42/42/42
